<svg width="431" height="431" viewBox="0 0 431 431" fill="none" xmlns="http://www.w3.org/2000/svg">
<rect x="3" y="3" width="425" height="425" rx="37" stroke="white" stroke-width="0"/>
<path d="M125.708 179.583H107.75C88.6987 179.583 70.4276 172.015 56.9562 158.544C43.4849 145.073 35.9167 126.801 35.9167 107.75C35.9167 102.987 37.8088 98.4195 41.1766 95.0516C44.5445 91.6838 49.1122 89.7917 53.8751 89.7917H125.708" stroke="white" stroke-width="28" stroke-linecap="round" stroke-linejoin="round"/>
<path d="M125.708 89.7916C125.708 85.0287 127.6 80.461 130.968 77.0931C134.336 73.7253 138.904 71.8333 143.667 71.8333H377.125C381.888 71.8333 386.456 73.7253 389.823 77.0931C393.191 80.461 395.083 85.0287 395.083 89.7916C395.083 123.132 381.839 155.106 358.264 178.681C334.689 202.256 302.715 215.5 269.375 215.5H143.667C138.904 215.5 134.336 213.608 130.968 210.24C127.6 206.872 125.708 202.304 125.708 197.542V89.7916Z" stroke="white" stroke-width="28" stroke-linecap="round" stroke-linejoin="round"/>
<path d="M161.625 215.5V305.292" stroke="white" stroke-width="28" stroke-linecap="round" stroke-linejoin="round"/>
<path d="M269.375 215.5V305.292" stroke="white" stroke-width="28" stroke-linecap="round" stroke-linejoin="round"/>
<path d="M89.7917 359.167C89.7917 344.878 95.4678 331.175 105.571 321.071C115.675 310.968 129.378 305.292 143.667 305.292H287.333C301.622 305.292 315.325 310.968 325.429 321.071C335.532 331.175 341.208 344.878 341.208 359.167C341.208 363.929 339.316 368.497 335.949 371.865C332.581 375.233 328.013 377.125 323.25 377.125H107.75C102.987 377.125 98.4195 375.233 95.0516 371.865C91.6838 368.497 89.7917 363.929 89.7917 359.167Z" stroke="white" stroke-width="28" stroke-linecap="round" stroke-linejoin="round"/>
</svg>
